<svg className="mt-[-20px]" width="30" height="51" viewBox="0 0 30 51" fill="none"
    xmlns="http://www.w3.org/2000/svg">
    <mask id="path-1-outside-1_260_1715" maskUnits="userSpaceOnUse" x="-1" y="12.25" width="32" height="33" fill="black"></mask>
    <path d="M28.9453 23.668C29.5898 24.1953 30 24.957 30 25.8359V41.1875C30 42.7695 28.7109 44 27.1875 44H2.8125C1.23047 44 0 42.7695 0 41.1875V25.8359C0 24.957 0.351562 24.1953 0.996094 23.668C1.23047 23.4922 7.5 18.4531 8.90625 17.2812C10.2539 16.2266 12.4219 14 15 14C17.5195 14 19.7461 16.2852 21.0352 17.2812C22.3828 18.3945 28.6523 23.4336 28.9453 23.668ZM27.1875 40.8359V26.0117C27.1875 25.8945 27.1289 25.7773 27.0117 25.7188C26.0742 24.957 20.625 20.6211 19.2773 19.5078C18.2227 18.6875 16.3477 16.8125 15 16.8125C13.5938 16.8125 11.7188 18.6289 10.6641 19.5078C9.31641 20.6211 3.86719 24.957 2.92969 25.7188C2.8125 25.7773 2.8125 25.8945 2.8125 26.0117V40.8359C2.8125 41.0703 2.92969 41.1875 3.16406 41.1875H26.8359C27.0117 41.1875 27.1875 41.0703 27.1875 40.8359ZM25.3125 29.8789C25.5469 30.1719 25.4883 30.6406 25.1953 30.875C23.4961 32.2227 21.6797 33.6289 21.0352 34.2148C19.6875 35.2695 17.5195 37.4375 15 37.4375C12.4219 37.4375 10.1953 35.2109 8.90625 34.2148C8.26172 33.6875 6.44531 32.2227 4.74609 30.875C4.45312 30.6406 4.39453 30.1719 4.62891 29.8789L5.56641 28.7656C5.80078 28.4727 6.21094 28.4141 6.5625 28.707C8.20312 30.0547 9.96094 31.4609 10.6641 31.9883C11.7188 32.8086 13.5938 34.625 15 34.625C16.3477 34.625 18.2227 32.8672 19.2773 31.9883C19.9805 31.4609 21.7383 30.0547 23.3789 28.707C23.7305 28.4141 24.1406 28.4727 24.375 28.7656L25.3125 29.8789Z" fill="#DE2329" />
</svg>