<svg width="31" height="51" viewBox="0 0 31 51" fill="none"
    xmlns="http://www.w3.org/2000/svg">
    <mask id="path-1-outside-1_260_1711" maskUnits="userSpaceOnUse" x="-1" y="12.25" width="33" height="33" fill="black"></mask>
    <path d="M29.8867 15.4648C30.5312 15.6406 31 16.168 31 16.8125C31 31.8711 18.8125 44 3.8125 44C3.10938 44 2.58203 43.5898 2.40625 42.9453L1 36.8516C0.882812 36.207 1.17578 35.5039 1.82031 35.2109L8.38281 32.3984C8.96875 32.1641 9.61328 32.3398 10.0234 32.8086L12.9531 36.3828C17.5234 34.2148 21.2148 30.4648 23.3242 26.0117L19.75 23.082C19.2812 22.6719 19.1055 22.0273 19.3398 21.4414L22.1523 14.8789C22.4453 14.2344 23.1484 13.8828 23.793 14.0586L29.8867 15.4648Z" fill="#DE2329" />
</svg>