<svg width="23" height="38" viewBox="0 0 23 38" fill="none"
    xmlns="http://www.w3.org/2000/svg">
    <mask id="path-1-outside-1_260_1707" maskUnits="userSpaceOnUse" x="-1" y="6" width="25" height="33" fill="black"></mask>
    <path d="M10.0781 37.1641C1.52344 24.8594 0 23.5703 0 19C0 12.7891 4.98047 7.75 11.25 7.75C17.4609 7.75 22.5 12.7891 22.5 19C22.5 23.5703 20.918 24.8594 12.3633 37.1641C11.8359 37.9844 10.6055 37.9844 10.0781 37.1641ZM11.25 23.6875C13.8281 23.6875 15.9375 21.6367 15.9375 19C15.9375 16.4219 13.8281 14.3125 11.25 14.3125C8.61328 14.3125 6.5625 16.4219 6.5625 19C6.5625 21.6367 8.61328 23.6875 11.25 23.6875Z" fill="#DE2329" />
</svg>